<svg width="24" height="25" viewBox="0 0 24 25" fill="none" xmlns="http://www.w3.org/2000/svg">
<path d="M11 2.5H9C4 2.5 2 4.5 2 9.5V15.5C2 20.5 4 22.5 9 22.5H15C20 22.5 22 20.5 22 15.5V13.5" stroke="#292D32" stroke-width="1.5" stroke-linecap="round" stroke-linejoin="round"/>
<path d="M16.0399 3.52001L8.15988 11.4C7.85988 11.7 7.55988 12.29 7.49988 12.72L7.06988 15.73C6.90988 16.82 7.67988 17.58 8.76988 17.43L11.7799 17C12.1999 16.94 12.7899 16.64 13.0999 16.34L20.9799 8.46001C22.3399 7.10001 22.9799 5.52001 20.9799 3.52001C18.9799 1.52001 17.3999 2.16001 16.0399 3.52001Z" stroke="#292D32" stroke-width="1.5" stroke-miterlimit="10" stroke-linecap="round" stroke-linejoin="round"/>
<path d="M14.9102 4.6499C15.5802 7.0399 17.4502 8.9099 19.8502 9.5899" stroke="#292D32" stroke-width="1.5" stroke-miterlimit="10" stroke-linecap="round" stroke-linejoin="round"/>
</svg>
