<svg width="21" height="16" viewBox="0 0 21 16" fill="none" xmlns="http://www.w3.org/2000/svg">
<path d="M3.50127 4.20458L6.8608 5.17446L10.5534 2.49268L5.25407 2.64459C5.20218 2.64742 5.15189 2.66351 5.108 2.69133L3.43116 3.65537C3.379 3.68427 3.33671 3.72815 3.30976 3.78135C3.28281 3.83454 3.27244 3.89459 3.27999 3.95375C3.28754 4.0129 3.31266 4.06842 3.35211 4.11314C3.39156 4.15786 3.44352 4.18971 3.50127 4.20458Z" fill="#030359"/>
<path d="M20.0184 1.20157L16.3375 0.406963C16.028 0.339759 15.7076 0.339934 15.3981 0.407477C15.0886 0.475021 14.7973 0.608352 14.5438 0.798422L3.42525 8.87883L0.755149 8.76198C0.602209 8.75678 0.451499 8.79975 0.324299 8.88483C0.1971 8.96991 0.0998386 9.09279 0.0462481 9.23613C-0.00734235 9.37947 -0.014554 9.53602 0.0256314 9.68368C0.0658168 9.83134 0.151369 9.96264 0.270208 10.0591L2.8702 12.1215C2.913 12.156 2.96395 12.179 3.01816 12.1882C3.07238 12.1974 3.12806 12.1926 3.17986 12.1741C3.92188 11.8878 6.68546 10.4213 9.95151 8.6276L10.6059 15.3525C10.6114 15.4108 10.6328 15.4664 10.6676 15.5134C10.7025 15.5604 10.7495 15.597 10.8036 15.6192C10.8577 15.6415 10.9169 15.6485 10.9747 15.6396C11.0325 15.6307 11.0868 15.6062 11.1317 15.5687L12.5924 14.3534C12.6724 14.2864 12.7261 14.1933 12.7443 14.0905L14.129 6.32559C16.4661 5.02852 18.698 3.77234 20.2697 2.88426C20.4328 2.7955 20.5646 2.65876 20.6474 2.49255C20.7302 2.32634 20.7599 2.1387 20.7325 1.95505C20.7051 1.7714 20.6219 1.60062 20.4941 1.46584C20.3664 1.33106 20.2003 1.2388 20.0184 1.20157Z" fill="#030359"/>
</svg>
